<svg width="14" height="18" viewBox="0 0 14 18" fill="none" xmlns="http://www.w3.org/2000/svg">
<path fill-rule="evenodd" clip-rule="evenodd" d="M9.79 0.29L10.5 1H13C13.55 1 14 1.45 14 2C14 2.55 13.55 3 13 3H1C0.45 3 0 2.55 0 2C0 1.45 0.45 1 1 1H3.5L4.21 0.29C4.39 0.11 4.65 0 4.91 0H9.09C9.35 0 9.61 0.11 9.79 0.29ZM3 18C1.9 18 1 17.1 1 16V6C1 4.9 1.9 4 3 4H11C12.1 4 13 4.9 13 6V16C13 17.1 12.1 18 11 18H3ZM10.375 5.5H3.625C3.00625 5.5 2.5 5.995 2.5 6.6V15.4C2.5 16.005 3.00625 16.5 3.625 16.5H10.375C10.9937 16.5 11.5 16.005 11.5 15.4V6.6C11.5 5.995 10.9937 5.5 10.375 5.5ZM4 7.5C4 7.22386 4.22386 7 4.5 7C4.77614 7 5 7.22386 5 7.5V14.5C5 14.7761 4.77614 15 4.5 15C4.22386 15 4 14.7761 4 14.5V7.5ZM7 7C6.72386 7 6.5 7.22386 6.5 7.5V14.5C6.5 14.7761 6.72386 15 7 15C7.27614 15 7.5 14.7761 7.5 14.5V7.5C7.5 7.22386 7.27614 7 7 7ZM9 7.5C9 7.22386 9.22386 7 9.5 7C9.77614 7 10 7.22386 10 7.5V14.5C10 14.7761 9.77614 15 9.5 15C9.22386 15 9 14.7761 9 14.5V7.5Z" fill="#FF6868"/>
</svg>
