<svg width="19" height="15" viewBox="0 0 19 15" fill="none" xmlns="http://www.w3.org/2000/svg">
<path fill-rule="evenodd" clip-rule="evenodd" d="M6.24393 8.63312L14.3967 0.480302C15.0371 -0.160101 16.0716 -0.160101 16.7203 0.480302L17.8697 1.62974C18.5101 2.27015 18.5101 3.31285 17.8697 3.95325L7.40158 14.4132C6.76117 15.0536 5.71847 15.0536 5.07806 14.4132L0.480302 9.8154C-0.160101 9.175 -0.160101 8.13229 0.480302 7.49189L1.62974 6.34245C2.27015 5.70205 3.31285 5.70205 3.95325 6.34245L6.24393 8.63312ZM16.1291 3.37033C16.4493 3.05013 16.4493 2.54109 16.1291 2.22089C15.8089 1.90069 15.2999 1.90069 14.9797 2.22089L6.24393 10.9566L3.37033 8.08304C3.05013 7.76284 2.54109 7.76284 2.22089 8.08304C2.06723 8.23481 1.98075 8.44178 1.98075 8.65776C1.98075 8.87373 2.06723 9.08071 2.22089 9.23248L5.66921 12.6808C5.98941 13.001 6.49845 13.001 6.81865 12.6808L16.1291 3.37033Z" fill="#26C05C"/>
</svg>
