<svg width="173" height="45" viewBox="0 0 173 45" fill="none" xmlns="http://www.w3.org/2000/svg">
<path d="M28.668 6.932H20.296L14.108 36H2.876L9.064 6.932H0.796L1.732 2.98H29.552L28.668 6.932ZM26.2362 15.564C28.0042 14.6973 29.8069 14.0733 31.6442 13.692C33.5162 13.276 35.5962 13.068 37.8842 13.068C40.1029 13.068 41.9402 13.2413 43.3962 13.588C44.8522 13.9347 46.0135 14.4373 46.8802 15.096C47.7469 15.7547 48.3535 16.5347 48.7002 17.436C49.0469 18.3373 49.2202 19.36 49.2202 20.504C49.2202 21.1627 49.1682 21.8733 49.0642 22.636C48.9949 23.3987 48.9082 24.04 48.8042 24.56L46.3602 36H37.9882L37.0522 32.672H36.7402C35.6309 33.8853 34.3309 34.8213 32.8402 35.48C31.3842 36.104 29.9282 36.416 28.4722 36.416C27.6402 36.416 26.8255 36.2947 26.0282 36.052C25.2309 35.8093 24.5202 35.4453 23.8962 34.96C23.2722 34.44 22.7695 33.7987 22.3882 33.036C22.0069 32.2387 21.8162 31.2853 21.8162 30.176C21.8162 28.3733 22.3015 26.952 23.2722 25.912C24.2775 24.8373 25.5775 24.04 27.1722 23.52C28.8015 22.9653 30.6215 22.6187 32.6322 22.48C34.6775 22.3413 36.7229 22.272 38.7682 22.272C38.8375 21.9253 38.9242 21.44 39.0282 20.816C39.1322 20.1573 39.1842 19.5853 39.1842 19.1C39.1842 18.476 39.0109 17.904 38.6642 17.384C38.3522 16.8293 37.6762 16.552 36.6362 16.552C35.4229 16.552 34.5215 16.916 33.9322 17.644C33.3775 18.3373 33.0135 19.1867 32.8402 20.192H25.2482L26.2362 15.564ZM38.1962 24.716H37.2602C36.2549 24.716 35.3882 24.8547 34.6602 25.132C33.9669 25.3747 33.3949 25.704 32.9442 26.12C32.5282 26.536 32.2162 27.004 32.0082 27.524C31.8002 28.044 31.6962 28.564 31.6962 29.084C31.6962 29.916 31.9042 30.54 32.3202 30.956C32.7709 31.372 33.2909 31.58 33.8802 31.58C34.6082 31.58 35.3189 31.32 36.0122 30.8C36.7402 30.28 37.1909 29.5867 37.3642 28.72L38.1962 24.716ZM67.1476 20.192C67.1823 20.0187 67.2169 19.8453 67.2516 19.672C67.2863 19.4987 67.3036 19.308 67.3036 19.1C67.3036 18.476 67.1823 17.904 66.9396 17.384C66.7316 16.8293 66.2983 16.552 65.6396 16.552C65.0503 16.552 64.4609 16.812 63.8716 17.332C63.2823 17.8173 62.9876 18.476 62.9876 19.308C62.9876 19.8627 63.1263 20.3133 63.4036 20.66C63.7156 20.972 64.1143 21.232 64.5996 21.44C65.0849 21.648 65.6223 21.8213 66.2116 21.96C66.8356 22.0987 67.4423 22.2373 68.0316 22.376C68.8636 22.584 69.6436 22.844 70.3716 23.156C71.1343 23.4333 71.8103 23.8147 72.3996 24.3C72.9889 24.7853 73.4569 25.392 73.8036 26.12C74.1503 26.8133 74.3236 27.68 74.3236 28.72C74.3236 30.176 73.9769 31.4067 73.2836 32.412C72.6249 33.3827 71.6889 34.18 70.4756 34.804C69.2969 35.3933 67.8929 35.8093 66.2636 36.052C64.6689 36.2947 62.9529 36.416 61.1156 36.416C58.3076 36.416 55.9849 36.208 54.1476 35.792C52.3103 35.376 51.0276 34.9773 50.2996 34.596L51.3916 29.396H58.4116C58.3769 29.5693 58.3596 29.7427 58.3596 29.916C58.3596 30.0547 58.3596 30.2107 58.3596 30.384C58.3596 31.1813 58.5329 31.8227 58.8796 32.308C59.2609 32.7587 59.9023 32.984 60.8036 32.984C61.8089 32.984 62.5196 32.7067 62.9356 32.152C63.3863 31.5627 63.6116 31.0253 63.6116 30.54C63.6116 30.0547 63.4209 29.6387 63.0396 29.292C62.6929 28.9107 62.2423 28.5987 61.6876 28.356C61.1329 28.0787 60.5089 27.8533 59.8156 27.68C59.1569 27.472 58.5156 27.2813 57.8916 27.108C57.4409 27.004 56.9209 26.8307 56.3316 26.588C55.7769 26.3453 55.2396 25.9987 54.7196 25.548C54.1996 25.0973 53.7663 24.5253 53.4196 23.832C53.0729 23.104 52.8996 22.2027 52.8996 21.128C52.8996 19.6027 53.2636 18.3373 53.9916 17.332C54.7543 16.292 55.7249 15.46 56.9036 14.836C58.1169 14.212 59.4689 13.7613 60.9596 13.484C62.4849 13.2067 64.0103 13.068 65.5356 13.068C67.4423 13.068 69.2449 13.2413 70.9436 13.588C72.6423 13.9347 74.0289 14.3853 75.1036 14.94L73.9076 20.192H67.1476ZM89.3674 23.104L101.483 13.64H108.347L97.9994 22.116L105.747 36H94.0994L88.7954 25.548L86.6114 36H76.0034L83.3874 1.056H94.0474L89.3674 23.104ZM117.688 36H107.132L111.864 13.64H122.524L117.688 36ZM123.876 6.828C123.876 7.62533 123.703 8.31866 123.356 8.908C123.044 9.49733 122.611 10 122.056 10.416C121.536 10.832 120.93 11.144 120.236 11.352C119.543 11.56 118.832 11.664 118.104 11.664C116.718 11.664 115.556 11.3347 114.62 10.676C113.684 10.0173 113.216 8.97733 113.216 7.556C113.216 6.79333 113.372 6.11733 113.684 5.528C113.996 4.904 114.412 4.40133 114.932 4.02C115.487 3.604 116.111 3.292 116.804 3.084C117.532 2.876 118.278 2.772 119.04 2.772C120.392 2.772 121.536 3.10133 122.472 3.76C123.408 4.41867 123.876 5.44133 123.876 6.828ZM125.331 13.64H129.335L129.803 11.508C130.253 9.428 130.912 7.67733 131.779 6.256C132.645 4.8 133.668 3.62133 134.847 2.72C136.06 1.81867 137.429 1.17733 138.955 0.795998C140.48 0.379999 142.109 0.171999 143.843 0.171999C144.917 0.171999 146.061 0.241332 147.275 0.379997C148.488 0.518664 149.753 0.743997 151.071 1.056L150.239 5.216C149.476 5.112 148.661 5.04267 147.795 5.008C146.928 4.93866 146.235 4.904 145.715 4.904C145.021 4.904 144.415 4.956 143.895 5.06C143.409 5.164 142.976 5.372 142.595 5.684C142.213 5.96133 141.884 6.36 141.607 6.88C141.329 7.4 141.104 8.09333 140.931 8.96L139.943 13.64H145.403L144.727 17.124H139.215L135.211 36H124.603L128.607 17.124H124.551L125.331 13.64ZM156.962 13.64L158.522 28.928L166.738 13.64H172.25L159.718 36C158.47 38.184 157.205 39.8653 155.922 41.044C154.639 42.2227 153.235 43.0893 151.71 43.644C150.219 44.1987 148.555 44.5107 146.718 44.58C144.915 44.684 142.853 44.736 140.53 44.736L141.31 41.148C142.454 41.148 143.511 41.1307 144.482 41.096C145.487 41.0613 146.285 40.9573 146.874 40.784C147.671 40.576 148.243 40.1947 148.59 39.64C148.937 39.12 149.11 38.34 149.11 37.3C149.11 36.6067 149.041 35.8093 148.902 34.908C148.798 34.0067 148.677 33.0533 148.538 32.048L145.99 13.64H156.962Z" fill="#D3D0D0"/>
</svg>
