<svg width="24" height="24" viewBox="0 0 24 24" fill="none" xmlns="http://www.w3.org/2000/svg">
<path fill-rule="evenodd" clip-rule="evenodd" d="M3.55556 8C3.25 8 3 7.55 3 7C3 6.45 3.25 6 3.55556 6H12.4444C12.75 6 13 6.45 13 7C13 7.55 12.75 8 12.4444 8H3.55556ZM3.77778 13H16.2222C16.65 13 17 12.55 17 12C17 11.45 16.65 11 16.2222 11H3.77778C3.35 11 3 11.45 3 12C3 12.55 3.35 13 3.77778 13ZM4 18H20C20.55 18 21 17.55 21 17C21 16.45 20.55 16 20 16H4C3.45 16 3 16.45 3 17C3 17.55 3.45 18 4 18Z" fill="#6D7D8B"/>
</svg>
